<?xml version="1.0" encoding="UTF-8" standalone="no"?>
<!-- Created with Inkscape (http://www.inkscape.org/) -->

<svg
   width="20mm"
   height="20mm"
   viewBox="0 0 20 20"
   version="1.1"
   id="svg5"
   sodipodi:docname="audio.svg"
   inkscape:version="1.1.1 (3bf5ae0d25, 2021-09-20)"
   xmlns:inkscape="http://www.inkscape.org/namespaces/inkscape"
   xmlns:sodipodi="http://sodipodi.sourceforge.net/DTD/sodipodi-0.dtd"
   xmlns="http://www.w3.org/2000/svg"
   xmlns:svg="http://www.w3.org/2000/svg">
  <sodipodi:namedview
     id="namedview881"
     pagecolor="#ffffff"
     bordercolor="#666666"
     borderopacity="1.0"
     inkscape:pageshadow="2"
     inkscape:pageopacity="0.0"
     inkscape:pagecheckerboard="0"
     inkscape:document-units="mm"
     showgrid="false"
     inkscape:zoom="5.6568543"
     inkscape:cx="24.395184"
     inkscape:cy="38.802485"
     inkscape:window-width="1914"
     inkscape:window-height="1057"
     inkscape:window-x="900"
     inkscape:window-y="17"
     inkscape:window-maximized="0"
     inkscape:current-layer="svg5"
     inkscape:snap-global="true" />
  <defs
     id="defs2">
    <rect
       x="-41.756632"
       y="57.51315"
       width="97.001723"
       height="38.200716"
       id="rect36716" />
    <rect
       x="4.7738342"
       y="9.6156616"
       width="70.562866"
       height="61.787079"
       id="rect4711" />
    <rect
       x="2.2694593"
       y="3.0539625"
       width="104.8575"
       height="98.76088"
       id="rect5314" />
  </defs>
  <path
     id="path60872"
     style="fill:#020202;fill-opacity:1;stroke:none;stroke-width:3.26929;stroke-linecap:butt;stroke-linejoin:bevel;stroke-miterlimit:4;stroke-dasharray:none;stroke-opacity:1;paint-order:markers fill stroke"
     inkscape:transform-center-x="-1.0620884"
     inkscape:transform-center-y="-0.79628171"
     d="M 67.466797 0.59765625 L 23.925781 10.15625 L 23.925781 54.248047 A 10.071387 16.295846 73.373003 0 0 13.292969 54.998047 A 10.071387 16.295846 73.373003 0 0 0.56054688 69.310547 A 10.071387 16.295846 73.373003 0 0 19.056641 74.298828 A 10.071387 16.295846 73.373003 0 0 31.986328 60.884766 L 31.986328 24.601562 L 67.466797 15.095703 L 67.466797 43.808594 A 10.071387 16.295846 73.373003 0 0 56.771484 44.546875 A 10.071387 16.295846 73.373003 0 0 44.039062 58.859375 A 10.071387 16.295846 73.373003 0 0 62.535156 63.845703 A 10.071387 16.295846 73.373003 0 0 75.345703 49.826172 L 75.345703 0.59765625 L 67.466797 0.59765625 z "
     transform="scale(0.26458333)" />
</svg>
