<?xml version="1.0" encoding="UTF-8" standalone="no"?>
<!-- Created with Inkscape (http://www.inkscape.org/) -->

<svg
   width="20mm"
   height="20mm"
   viewBox="0 0 20 20"
   version="1.1"
   id="svg5"
   sodipodi:docname="hyperlink.svg"
   inkscape:version="1.1.1 (3bf5ae0d25, 2021-09-20)"
   xmlns:inkscape="http://www.inkscape.org/namespaces/inkscape"
   xmlns:sodipodi="http://sodipodi.sourceforge.net/DTD/sodipodi-0.dtd"
   xmlns="http://www.w3.org/2000/svg"
   xmlns:svg="http://www.w3.org/2000/svg">
  <sodipodi:namedview
     id="namedview881"
     pagecolor="#ffffff"
     bordercolor="#666666"
     borderopacity="1.0"
     inkscape:pageshadow="2"
     inkscape:pageopacity="0.0"
     inkscape:pagecheckerboard="0"
     inkscape:document-units="mm"
     showgrid="false"
     inkscape:zoom="5.6568543"
     inkscape:cx="34.648232"
     inkscape:cy="40.216698"
     inkscape:window-width="1914"
     inkscape:window-height="1057"
     inkscape:window-x="900"
     inkscape:window-y="17"
     inkscape:window-maximized="0"
     inkscape:current-layer="svg5"
     inkscape:snap-global="false" />
  <defs
     id="defs2">
    <rect
       x="-41.756632"
       y="57.51315"
       width="97.001723"
       height="38.200716"
       id="rect36716" />
    <rect
       x="4.7738342"
       y="9.6156616"
       width="70.562866"
       height="61.787079"
       id="rect4711" />
    <rect
       x="2.2694593"
       y="3.0539625"
       width="104.8575"
       height="98.76088"
       id="rect5314" />
  </defs>
  <path
     id="path23059"
     style="fill:#000000;fill-opacity:1;stroke:none;stroke-width:3.26929;stroke-linecap:butt;stroke-linejoin:bevel;stroke-miterlimit:4;stroke-dasharray:none;stroke-opacity:1;paint-order:markers fill stroke"
     d="M 37.822266,0.63085938 C 17.200573,0.63017793 0.48300025,17.347059 0.48242188,37.96875 c -3.112e-5,0.941558 0.0370179,1.874768 0.10546874,2.798828 H 3.875 C 3.7391259,39.645852 3.6454754,38.53436 3.6699219,37.628906 c 0.1074789,-3.980837 2.234375,-12.177734 2.234375,-12.177734 0,0 2.4995767,2.288298 3.9335937,3.359375 1.6045624,1.198459 5.1601564,3.332031 5.1601564,3.332031 0,0 -0.443322,4.73308 -0.404297,8.625 h 3.466797 c -0.105015,-3.530775 0.07617,-7.117187 0.07617,-7.117187 0,0 5.445019,2.343671 8.333984,2.896484 3.218929,0.615949 9.822266,0.958984 9.822266,0.958984 l 0.002,3.261719 h 3.693359 l 0.002,-3.261719 c 0,0 6.603337,-0.343034 9.822266,-0.958984 2.888976,-0.552813 8.335937,-2.896484 8.335938,-2.896484 0,0 0.179898,3.5864 0.07422,7.117187 h 3.851563 c 0.03901,-3.891918 -0.404297,-8.625 -0.404297,-8.625 0,0 3.620045,-1.768338 5.224609,-2.966797 1.434017,-1.071076 3.421875,-3.21875 3.421875,-3.21875 0,0 2.060491,7.57385 2.167969,11.554688 0.02532,0.937587 -0.03735,2.094184 -0.132813,3.255859 h 2.703126 C 75.123222,39.843556 75.160281,38.910267 75.16025,37.96875 75.159578,17.347949 58.443065,0.63143744 37.822266,0.63085938 Z M 34.152344,3.7519531 25.021484,10.59375 c 0,0 -1.312105,-0.518766 -1.833984,-0.9746094 -0.546192,-0.4770803 -1.271484,-1.765625 -1.271484,-1.765625 0,0 3.835936,-1.8373236 5.845703,-2.5136718 2.080863,-0.7002751 6.390625,-1.5878907 6.390625,-1.5878907 z m 7.93164,0 c 0,0 4.313667,0.8876156 6.394532,1.5878907 2.009763,0.6763482 5.84375,2.5136718 5.84375,2.5136718 0,0 -0.723341,1.2885447 -1.269532,1.765625 -0.521877,0.4558444 -1.835937,0.9746094 -1.835937,0.9746094 z m -5.71875,2.4902344 c 0,0 -0.534942,6.4807705 -0.197265,7.1523435 0,10e-7 -2.547266,0.01961 -3.794922,-0.199219 -1.248257,-0.218931 -3.638671,-1.103515 -3.638672,-1.103515 z m 3.511719,0 7.626953,5.8496095 c 0,0 -2.388466,0.884583 -3.636718,1.103515 -1.247657,0.218828 -3.794922,0.199219 -3.794922,0.199219 0.337663,-0.671573 -0.195313,-7.1523439 -0.195313,-7.1523435 z M 18.550781,9.6503906 22.59375,13.267578 c 0,0 -3.403016,4.321097 -4.626953,6.763672 -1.242437,2.479492 -2.689453,7.875 -2.689453,7.875 -2.942308,-2.351851 -5.234084,-3.966512 -7.8515628,-5.949219 0,0 2.9978008,-4.828742 4.8964848,-6.921875 1.843949,-2.032828 6.228515,-5.3847654 6.228515,-5.3847654 z m 40.001953,0.064453 c 0,0 3.636506,3.2874844 5.480469,5.3203124 1.898672,2.093132 4.898441,6.921875 4.898438,6.921875 -2.617459,1.982707 -4.91121,3.597369 -7.853516,5.949219 0,0 -1.445063,-5.395508 -2.6875,-7.875 -1.223936,-2.442575 -4.076172,-6.474609 -4.076172,-6.474609 0,0 1.430915,-0.722083 2.185547,-1.34375 1.452748,-1.196774 2.052734,-2.4980474 2.052734,-2.4980474 z M 25.785156,14.958984 c 0,0 3.232155,1.242386 4.923828,1.570313 1.91744,0.37169 5.84375,0.435547 5.84375,0.435547 l -0.28125,16.816406 c 0,0 -5.91041,-0.481672 -8.796875,-1.115234 -2.865431,-0.628941 -8.392578,-2.650391 -8.392578,-2.650391 L 18.613281,29.875 c 0,0 1.233469,-5.964818 2.574219,-8.662109 1.151651,-2.316866 4.597656,-6.253907 4.597656,-6.253907 z m 24.785156,0 c 0,0 3.024129,3.937041 4.175782,6.253907 1.340749,2.697291 2.996094,8.662109 2.996094,8.662109 l -0.46875,0.140625 c 0,0 -5.525192,2.02145 -8.390626,2.650391 -2.886469,0.633562 -8.796875,1.115234 -8.796874,1.115234 L 39.802734,16.964844 c 0,0 3.926313,-0.06386 5.84375,-0.435547 1.691672,-0.327927 4.923829,-1.570313 4.923828,-1.570313 z M 0.06835937,43.333252 4.6558499,65.88208 h 5.2755798 c 1.1854173,-5.257842 2.6341303,-8.61391 3.5588043,-13.498121 1.030652,4.969488 2.835079,9.170789 4.141816,13.498121 h 4.70607 l 3.355239,-22.262056 3.240788,22.262056 h 4.963689 c 1.337449,-5.25611 2.920362,-8.586589 3.850211,-13.498121 1.115574,4.881929 2.392989,9.141804 3.375554,13.498121 h 6.051462 l 2.778062,-22.565359 3.103203,22.565359 h 5.618554 c 1.007705,-4.928568 2.423172,-8.703009 3.330977,-13.498121 0.922364,4.70567 2.709988,8.657834 4.189161,13.498121 h 4.868976 l 4.521942,-22.548828 h -2.90625 l -3.220704,13.738281 c -0.231595,0.989542 -0.441372,1.946666 -0.630859,2.873047 -0.168433,0.905326 -0.304886,1.748342 -0.410156,2.527344 C 68.312698,61.73503 68.164096,60.892014 67.974609,59.94458 67.785123,58.976091 67.553,58.008771 67.279297,57.040283 l -3.820313,-9.120739 h -2.90625 l -3.662109,9.025036 c -0.252649,0.92638 -0.484772,1.873308 -0.695313,2.841797 -0.189486,0.968488 -0.336135,1.864437 -0.441406,2.685547 C 55.66969,61.671868 55.54148,60.818656 55.373047,59.91333 55.204614,59.008004 55.005033,58.071271 54.773438,57.102783 L 51.521484,43.333252 h -0.193359 -2.90625 l -3.220703,13.738281 c -0.231595,0.989542 -0.441373,1.946666 -0.63086,2.873047 -0.168432,0.905326 -0.306838,1.748342 -0.412109,2.527344 -0.10527,-0.736894 -0.251919,-1.57991 -0.441406,-2.527344 -0.189487,-0.968489 -0.421609,-1.935809 -0.695313,-2.904297 l -3.820312,-9.120739 h -2.90625 l -3.664063,9.025036 c -0.252649,0.92638 -0.482818,1.873308 -0.693359,2.841797 -0.189487,0.968488 -0.338089,1.864437 -0.443359,2.685547 -0.08422,-0.800056 -0.210474,-1.653268 -0.378907,-2.558594 -0.168432,-0.905326 -0.368014,-1.842059 -0.599609,-2.810547 L 27.263672,43.333252 h -0.19336 -2.90625 l -3.220703,13.738281 c -0.231595,0.989542 -0.443325,1.946666 -0.632812,2.873047 -0.168433,0.905326 -0.304886,1.748342 -0.410156,2.527344 -0.105271,-0.736894 -0.25192,-1.57991 -0.441407,-2.527344 -0.189486,-0.968489 -0.421609,-1.935809 -0.695312,-2.904297 l -3.820313,-9.120739 h -2.90625 L 8.3730469,56.94458 C 8.1203977,57.87096 7.8902285,58.817888 7.6796875,59.786377 7.4902006,60.754865 7.3415986,61.650814 7.2363281,62.471924 7.1521117,61.671868 7.0258546,60.818656 6.8574219,59.91333 6.6889891,59.008004 6.4894076,58.071271 6.2578125,57.102783 L 3.0039062,43.333252 Z M 20.685547,71.152344 c 5.132357,2.655716 10.959229,4.156454 17.136719,4.15625 6.175561,-1.73e-4 11.999814,-1.501754 17.130859,-4.15625 h -9.837891 c -0.359145,0.426291 -0.625,0.738281 -0.625,0.738281 l -4.095703,0.455078 -0.01367,-1.193359 H 36.0625 l -0.03906,1.132812 -5.525391,-0.800781 c 0,0 -0.06174,-0.162978 -0.126953,-0.332031 z"
     transform="scale(0.26458333)"
     sodipodi:nodetypes="csccscsccccsccccsccccscsccccccscsccscsccccsccccsccccscccccsccscsccsccsccsccsccsccscccccccccccccccccccccccccccccccsccccccccccccccsccccccccccccccsccccccccccccccc" />
</svg>
