<?xml version="1.0" encoding="UTF-8" standalone="no"?>
<!-- Created with Inkscape (http://www.inkscape.org/) -->

<svg
   width="20mm"
   height="20mm"
   viewBox="0 0 20 20"
   version="1.1"
   id="svg5"
   sodipodi:docname="media.svg"
   inkscape:version="1.1.1 (3bf5ae0d25, 2021-09-20)"
   xmlns:inkscape="http://www.inkscape.org/namespaces/inkscape"
   xmlns:sodipodi="http://sodipodi.sourceforge.net/DTD/sodipodi-0.dtd"
   xmlns="http://www.w3.org/2000/svg"
   xmlns:svg="http://www.w3.org/2000/svg">
  <sodipodi:namedview
     id="namedview881"
     pagecolor="#ffffff"
     bordercolor="#666666"
     borderopacity="1.0"
     inkscape:pageshadow="2"
     inkscape:pageopacity="0.0"
     inkscape:pagecheckerboard="0"
     inkscape:document-units="mm"
     showgrid="false"
     inkscape:zoom="1.4142136"
     inkscape:cx="-6.363961"
     inkscape:cy="92.984541"
     inkscape:window-width="1914"
     inkscape:window-height="1057"
     inkscape:window-x="900"
     inkscape:window-y="17"
     inkscape:window-maximized="0"
     inkscape:current-layer="svg5"
     inkscape:snap-global="false" />
  <defs
     id="defs2">
    <rect
       x="-41.756632"
       y="57.51315"
       width="97.001723"
       height="38.200716"
       id="rect36716" />
    <rect
       x="4.7738342"
       y="9.6156616"
       width="70.562866"
       height="61.787079"
       id="rect4711" />
    <rect
       x="2.2694593"
       y="3.0539625"
       width="104.8575"
       height="98.76088"
       id="rect5314" />
  </defs>
  <path
     id="rect59361"
     style="fill:#020202;fill-opacity:1;stroke:none;stroke-width:3.26929;stroke-linecap:butt;stroke-linejoin:bevel;stroke-miterlimit:4;stroke-dasharray:none;stroke-opacity:1;paint-order:markers fill stroke"
     d="M 3.8027344 -0.04296875 C 1.7815928 -0.04296875 0.15429688 1.5843272 0.15429688 3.6054688 L 0.15429688 13.1875 L 6.1386719 13.1875 L 6.1386719 9.5292969 C 6.1386719 7.5081553 7.7659678 5.8808594 9.7871094 5.8808594 L 13.5625 5.8808594 L 13.5625 -0.04296875 L 3.8027344 -0.04296875 z M 18.929688 -0.04296875 L 18.929688 5.8808594 L 28.259766 5.8808594 L 28.259766 -0.04296875 L 18.929688 -0.04296875 z M 34.064453 -0.04296875 L 34.064453 5.8808594 L 44.898438 5.8808594 L 44.898438 1.328125 C 44.898438 0.84273181 44.992534 0.3798941 45.160156 -0.04296875 L 34.064453 -0.04296875 z M 51.804688 -0.04296875 C 51.972307 0.3798941 52.066406 0.84273181 52.066406 1.328125 L 52.066406 5.8808594 L 57.396484 5.8808594 C 59.417626 5.8808594 61.044922 7.5081553 61.044922 9.5292969 L 61.044922 13.1875 L 66.595703 13.1875 C 66.66676 13.1875 66.736611 13.19208 66.806641 13.195312 L 66.806641 3.6054688 C 66.806641 1.5843272 65.179345 -0.04296875 63.158203 -0.04296875 L 51.804688 -0.04296875 z M 41.847656 15.082031 L 41.847656 66.628906 L 55.171875 53.25 L 67.966797 75.412109 L 72.658203 70.720703 L 61.427734 51.267578 L 75.5 48.734375 L 41.847656 15.082031 z M 66.806641 19.130859 C 66.736611 19.134097 66.66676 19.138672 66.595703 19.138672 L 61.044922 19.138672 L 61.044922 23.820312 C 63.261325 26.262195 64.519488 27.646539 66.648438 29.988281 L 66.806641 29.988281 L 66.806641 19.130859 z M 0.15429688 19.138672 L 0.15429688 29.988281 L 6.1386719 29.988281 L 6.1386719 19.138672 L 0.15429688 19.138672 z M 0.15429688 37.462891 L 0.15429688 48.435547 L 6.1386719 48.435547 L 6.1386719 37.462891 L 0.15429688 37.462891 z M 0.15429688 55.195312 L 0.15429688 67.794922 C 0.15429687 69.816063 1.7815928 71.443359 3.8027344 71.443359 L 13.5625 71.443359 L 13.5625 66.041016 L 9.7871094 66.041016 C 7.7659678 66.041016 6.1386719 64.41372 6.1386719 62.392578 L 6.1386719 55.195312 L 0.15429688 55.195312 z M 18.929688 66.041016 L 18.929688 71.443359 L 28.259766 71.443359 L 28.259766 66.041016 L 18.929688 66.041016 z M 34.064453 66.041016 L 34.064453 71.443359 L 36.525391 71.443359 L 37.619141 66.041016 L 34.064453 66.041016 z "
     transform="scale(0.26458333)" />
</svg>
