<?xml version="1.0" encoding="UTF-8" standalone="no"?>
<!-- Created with Inkscape (http://www.inkscape.org/) -->

<svg
   width="20mm"
   height="20mm"
   viewBox="0 0 20 20"
   version="1.1"
   id="svg5"
   sodipodi:docname="search.svg"
   inkscape:version="1.1.1 (3bf5ae0d25, 2021-09-20)"
   xmlns:inkscape="http://www.inkscape.org/namespaces/inkscape"
   xmlns:sodipodi="http://sodipodi.sourceforge.net/DTD/sodipodi-0.dtd"
   xmlns="http://www.w3.org/2000/svg"
   xmlns:svg="http://www.w3.org/2000/svg">
  <sodipodi:namedview
     id="namedview881"
     pagecolor="#ffffff"
     bordercolor="#666666"
     borderopacity="1.0"
     inkscape:pageshadow="2"
     inkscape:pageopacity="0.0"
     inkscape:pagecheckerboard="0"
     inkscape:document-units="mm"
     showgrid="false"
     inkscape:zoom="5.6568543"
     inkscape:cx="24.395184"
     inkscape:cy="38.802485"
     inkscape:window-width="1914"
     inkscape:window-height="1057"
     inkscape:window-x="900"
     inkscape:window-y="17"
     inkscape:window-maximized="0"
     inkscape:current-layer="svg5"
     inkscape:snap-global="true" />
  <defs
     id="defs2">
    <rect
       x="-41.756632"
       y="57.51315"
       width="97.001723"
       height="38.200716"
       id="rect36716" />
    <rect
       x="4.7738342"
       y="9.6156616"
       width="70.562866"
       height="61.787079"
       id="rect4711" />
    <rect
       x="2.2694593"
       y="3.0539625"
       width="104.8575"
       height="98.76088"
       id="rect5314" />
  </defs>
  <path
     id="path61550"
     style="fill:#020202;fill-opacity:1;stroke:none;stroke-width:3.26929;stroke-linecap:butt;stroke-linejoin:bevel;stroke-miterlimit:4;stroke-dasharray:none;stroke-opacity:1;paint-order:markers fill stroke"
     d="M 46.044922 0.77734375 A 28.669542 28.669542 0 0 0 17.376953 29.445312 A 28.669542 28.669542 0 0 0 21.355469 44.001953 L 1.546875 63.810547 C 0.2517397 65.105682 0.2517397 67.191193 1.546875 68.486328 L 7.4628906 74.404297 C 8.7580259 75.699432 10.843537 75.699432 12.138672 74.404297 L 32.076172 54.46875 A 28.669542 28.669542 0 0 0 46.044922 58.115234 A 28.669542 28.669542 0 0 0 74.714844 29.445312 A 28.669542 28.669542 0 0 0 46.044922 0.77734375 z M 45.982422 10.751953 A 18.547996 18.547996 0 0 1 64.53125 29.300781 A 18.547996 18.547996 0 0 1 45.982422 47.847656 A 18.547996 18.547996 0 0 1 27.433594 29.300781 A 18.547996 18.547996 0 0 1 45.982422 10.751953 z "
     transform="scale(0.26458333)" />
</svg>
