<?xml version="1.0" encoding="UTF-8" standalone="no"?>
<!-- Created with Inkscape (http://www.inkscape.org/) -->

<svg
   width="20mm"
   height="20mm"
   viewBox="0 0 20 20"
   version="1.1"
   id="svg5"
   xmlns="http://www.w3.org/2000/svg"
   xmlns:svg="http://www.w3.org/2000/svg">
  <defs
     id="defs2">
    <rect
       x="2.2694593"
       y="3.0539625"
       width="104.8575"
       height="98.76088"
       id="rect5314" />
  </defs>
  <path
     id="rect1065"
     style="fill:#000000;fill-opacity:1;stroke-width:8.19999;stroke-linecap:round;stroke-linejoin:round;paint-order:markers fill stroke"
     d="M 29.832031 0.29492188 C 27.81089 0.29492188 26.183594 1.9222178 26.183594 3.9433594 L 26.183594 15.253906 A 27.694334 27.694334 0 0 1 50.580078 38.478516 L 71.775391 38.478516 C 73.796532 38.478516 75.423828 36.85122 75.423828 34.830078 L 75.423828 3.9433594 C 75.423828 1.9222178 73.796532 0.29492188 71.775391 0.29492188 L 29.832031 0.29492188 z M 23.224609 19.693359 A 23.094541 23.094541 0 0 0 0.12890625 42.787109 A 23.094541 23.094541 0 0 0 23.224609 65.882812 A 23.094541 23.094541 0 0 0 46.318359 42.787109 A 23.094541 23.094541 0 0 0 23.224609 19.693359 z M 56.828125 45.255859 L 49.021484 58.632812 L 39.027344 75.587891 L 54.515625 75.660156 L 74.195312 75.837891 L 66.513672 62.388672 L 56.828125 45.255859 z "
     transform="scale(0.26458333)" />
</svg>
