<?xml version="1.0" encoding="UTF-8" standalone="no"?>
<!-- Created with Inkscape (http://www.inkscape.org/) -->

<svg
   width="20mm"
   height="20mm"
   viewBox="0 0 20 20"
   version="1.1"
   id="svg5"
   xmlns="http://www.w3.org/2000/svg"
   xmlns:svg="http://www.w3.org/2000/svg">
  <defs
     id="defs2">
    <rect
       x="-41.756632"
       y="57.51315"
       width="97.001723"
       height="38.200716"
       id="rect36716" />
    <rect
       x="4.7738342"
       y="9.6156616"
       width="70.562866"
       height="61.787079"
       id="rect4711" />
    <rect
       x="2.2694593"
       y="3.0539625"
       width="104.8575"
       height="98.76088"
       id="rect5314" />
  </defs>
  <path
     id="rect1013"
     style="fill:#000000;fill-opacity:1;stroke:none;stroke-width:5.53701;stroke-linejoin:bevel;paint-order:markers fill stroke"
     d="M 5.9667969 0.4765625 C 2.8791531 0.4765625 0.39257812 2.9611851 0.39257812 6.0488281 L 0.39257812 69.601562 C 0.39257813 72.689206 2.8791531 75.175781 5.9667969 75.175781 L 15.980469 75.175781 L 15.980469 73.371094 C 15.980469 72.051981 17.042215 70.990234 18.361328 70.990234 L 20.910156 70.990234 C 22.229269 70.990234 23.291016 72.051981 23.291016 73.371094 L 23.291016 75.175781 L 52.949219 75.175781 L 52.949219 73.371094 C 52.949219 72.051981 54.010965 70.990234 55.330078 70.990234 L 57.878906 70.990234 C 59.198019 70.990234 60.259766 72.051981 60.259766 73.371094 L 60.259766 75.175781 L 69.576172 75.175781 C 72.663816 75.175781 75.150391 72.689206 75.150391 69.601562 L 75.150391 6.0488281 C 75.150391 2.9611851 72.663816 0.4765625 69.576172 0.4765625 L 60.259766 0.4765625 L 60.259766 2.0390625 C 60.259766 3.3581752 59.198019 4.421875 57.878906 4.421875 L 55.330078 4.421875 C 54.010965 4.421875 52.949219 3.3581752 52.949219 2.0390625 L 52.949219 0.4765625 L 23.291016 0.4765625 L 23.291016 2.0390625 C 23.291016 3.3581752 22.229269 4.421875 20.910156 4.421875 L 18.361328 4.421875 C 17.042215 4.421875 15.980469 3.3581752 15.980469 2.0390625 L 15.980469 0.4765625 L 5.9667969 0.4765625 z M 9.0585938 5.9433594 L 11.205078 5.9433594 C 12.524191 5.9433594 13.585937 7.0051055 13.585938 8.3242188 L 13.585938 15.185547 L 6.6757812 15.185547 L 6.6757812 8.3242188 C 6.6757812 7.0051055 7.7394805 5.9433594 9.0585938 5.9433594 z M 64.880859 5.9433594 L 67.029297 5.9433594 C 68.34841 5.9433594 69.410156 7.0051055 69.410156 8.3242188 L 69.410156 15.185547 L 62.5 15.185547 L 62.5 8.3242188 C 62.5 7.0051055 63.561746 5.9433594 64.880859 5.9433594 z M 24.875 18.134766 L 57.822266 37.214844 L 24.875 56.298828 L 24.875 37.382812 L 24.875 18.134766 z M 6.6757812 20.683594 L 13.585938 20.683594 L 13.585938 28.425781 L 6.6757812 28.425781 L 6.6757812 20.683594 z M 62.5 20.683594 L 69.410156 20.683594 L 69.410156 28.425781 L 62.5 28.425781 L 62.5 20.683594 z M 6.6757812 33.923828 L 13.585938 33.923828 L 13.585938 42.945312 L 6.6757812 42.945312 L 6.6757812 33.923828 z M 62.5 33.923828 L 69.410156 33.923828 L 69.410156 42.945312 L 62.5 42.945312 L 62.5 33.923828 z M 6.6757812 48.445312 L 13.585938 48.445312 L 13.585938 56.414062 L 6.6757812 56.414062 L 6.6757812 48.445312 z M 62.5 48.445312 L 69.410156 48.445312 L 69.410156 56.414062 L 62.5 56.414062 L 62.5 48.445312 z M 6.6757812 61.912109 L 13.585938 61.912109 L 13.585938 67.558594 C 13.585938 68.877707 12.524191 69.939453 11.205078 69.939453 L 9.0585938 69.939453 C 7.7394805 69.939453 6.6757812 68.877707 6.6757812 67.558594 L 6.6757812 61.912109 z M 62.5 61.912109 L 69.410156 61.912109 L 69.410156 67.558594 C 69.410156 68.877707 68.34841 69.939453 67.029297 69.939453 L 64.880859 69.939453 C 63.561746 69.939453 62.5 68.877707 62.5 67.558594 L 62.5 61.912109 z "
     transform="scale(0.26458333)" />
</svg>
